<svg xmlns="http://www.w3.org/2000/svg" width="1902" height="416.229" viewBox="0 0 1902 416.229">
  <g id="Group_2352" data-name="Group 2352" transform="translate(1996 7529.667) rotate(180)">
    <g id="patternpad" transform="translate(94 7113.438)">
      <rect id="Rectangle_33" data-name="Rectangle 33" width="1902" height="416.222" fill="#fff"/>
      <path id="Path_12" data-name="Path 12" d="M0,0A97.529,97.529,0,0,1,97.529,97.529L0,0A97.529,97.529,0,0,0,97.529,97.529" fill="#c87cfd"/>
      <rect id="Rectangle_34" data-name="Rectangle 34" width="97.53" height="97.53" transform="translate(195.059)" fill="#fff"/>
      <path id="Path_13" data-name="Path 13" d="M195.058,97.537a48.768,48.768,0,0,1,48.768-48.768L195.058,97.537a48.768,48.768,0,0,0,48.768-48.768" transform="translate(0 0)" fill="#e7c6fe"/>
      <rect id="Rectangle_35" data-name="Rectangle 35" width="97.53" height="97.53" transform="translate(451.117)" fill="#fff"/>
      <path id="Path_14" data-name="Path 14" d="M438.884,0a48.768,48.768,0,0,1,48.768,48.768L438.884,0a48.768,48.768,0,0,0,48.768,48.768" transform="translate(66.546)" fill="#e1b8fe"/>
      <rect id="Rectangle_36" data-name="Rectangle 36" width="97.53" height="97.53" transform="translate(1015.019)" fill="#fff"/>
      <rect id="Rectangle_37" data-name="Rectangle 37" width="97.53" height="97.53" transform="translate(1240.577)" fill="#fff"/>
      <path id="Path_15" data-name="Path 15" d="M1170.355,0a97.529,97.529,0,0,1,97.529,97.529L1170.355,0a97.529,97.529,0,0,0,97.529,97.529" transform="translate(183)" fill="#bacafe"/>
      <rect id="Rectangle_38" data-name="Rectangle 38" width="97.53" height="97.53" transform="translate(1609.413)" fill="#fff"/>
      <rect id="Rectangle_39" data-name="Rectangle 39" width="97.53" height="97.53" transform="translate(451.117 106.231)" fill="#fff"/>
      <path id="Path_16" data-name="Path 16" d="M390.116,146.3a48.768,48.768,0,0,1,48.768-48.768L390.116,146.3a48.768,48.768,0,0,0,48.768-48.768" transform="translate(59.151 7.458)" fill="#7193fc"/>
      <path id="Path_17" data-name="Path 17" d="M438.884,97.529A48.768,48.768,0,0,1,487.653,146.3L438.884,97.529A48.768,48.768,0,0,0,487.653,146.3" transform="translate(66.546 7.458)" fill="#dcacfe"/>
      <path id="Path_18" data-name="Path 18" d="M0,195.058a97.529,97.529,0,0,1,97.529,97.529L0,195.058a97.529,97.529,0,0,0,97.529,97.529" transform="translate(0 17.403)" fill="#fbf5ff"/>
      <path id="Path_19" data-name="Path 19" d="M390.116,292.587a97.529,97.529,0,0,1,97.529-97.529l-97.529,97.529a97.529,97.529,0,0,0,97.529-97.529" transform="translate(61 17.403)" fill="#e1e8fe"/>
      <path id="Path_20" data-name="Path 20" d="M487.645,292.587a97.529,97.529,0,0,1,97.529-97.529l-97.529,97.529a97.529,97.529,0,0,0,97.529-97.529" transform="translate(76.25 17.403)" fill="#f3e3ff"/>
      <path id="Path_21" data-name="Path 21" d="M780.232,195.058a97.529,97.529,0,0,1,97.529,97.529l-97.529-97.529a97.529,97.529,0,0,0,97.529,97.529" transform="translate(121.999 17.403)" fill="#cf8efd"/>
      <path id="Path_22" data-name="Path 22" d="M1170.355,292.587a97.529,97.529,0,0,1,97.529-97.529l-97.529,97.529a97.529,97.529,0,0,0,97.529-97.529" transform="translate(183 17.403)" fill="#cad7fe"/>
      <rect id="Rectangle_40" data-name="Rectangle 40" width="97.53" height="97.53" transform="translate(1609.413 212.462)" fill="#fff"/>
      <path id="Path_23" data-name="Path 23" d="M1414.174,292.595a48.768,48.768,0,0,1,48.768-48.768l-48.768,48.768a48.768,48.768,0,0,0,48.768-48.769" transform="translate(244 18.646)" fill="#c5d3fe"/>
      <path id="Path_24" data-name="Path 24" d="M1560.471,292.587A97.529,97.529,0,0,1,1658,195.058l-97.529,97.529A97.529,97.529,0,0,0,1658,195.058" transform="translate(244 17.403)" fill="#ce89fd"/>
      <rect id="Rectangle_41" data-name="Rectangle 41" width="97.53" height="97.53" transform="translate(0 318.693)" fill="#fff"/>
      <path id="Path_25" data-name="Path 25" d="M0,292.587a48.768,48.768,0,0,1,48.768,48.768L0,292.587a48.768,48.768,0,0,0,48.768,48.768" transform="translate(0 26.105)" fill="#e0b4fe"/>
      <path id="Path_26" data-name="Path 26" d="M48.768,390.124a48.768,48.768,0,0,1,48.768-48.768L48.768,390.124a48.768,48.768,0,0,0,48.768-48.768" transform="translate(0 26.105)" fill="#688bfc"/>
      <path id="Path_27" data-name="Path 27" d="M390.116,292.587a97.529,97.529,0,0,1,97.529,97.529l-97.529-97.529a97.529,97.529,0,0,0,97.529,97.529" transform="translate(61 26.105)" fill="#c3d1fe"/>
      <rect id="Rectangle_42" data-name="Rectangle 42" width="97.53" height="97.53" transform="translate(1240.577 318.693)" fill="#fff"/>
      <path id="Path_28" data-name="Path 28" d="M1121.587,341.355a48.768,48.768,0,0,1,48.768-48.768l-48.768,48.768a48.768,48.768,0,0,0,48.768-48.768" transform="translate(170.061 26.105)" fill="#e9cbfe"/>
      <path id="Path_29" data-name="Path 29" d="M1072.826,341.355a48.768,48.768,0,0,1,48.768,48.768l-48.768-48.768a48.768,48.768,0,0,0,48.768,48.768" transform="translate(162.667 26.105)" fill="#b6c7fe"/>
      <path id="Path_30" data-name="Path 30" d="M1121.587,390.124a48.768,48.768,0,0,1,48.768-48.768l-48.768,48.768a48.768,48.768,0,0,0,48.768-48.768" transform="translate(170.061 26.105)" fill="#e1b7fe"/>
      <rect id="Rectangle_43" data-name="Rectangle 43" width="97.53" height="97.53" transform="translate(1466.135 318.693)" fill="#fff"/>
    </g>
  </g>
</svg>
