<svg xmlns="http://www.w3.org/2000/svg" width="57.619" height="47.917" viewBox="0 0 77.619 67.917">
  <path id="Icon_awesome-quote-left" data-name="Icon awesome-quote-left" d="M70.342,36.208H58.214v-9.7a9.711,9.711,0,0,1,9.7-9.7H69.13a3.63,3.63,0,0,0,3.638-3.638V5.888A3.63,3.63,0,0,0,69.13,2.25H67.917A24.249,24.249,0,0,0,43.661,26.506V62.89a7.279,7.279,0,0,0,7.277,7.277h19.4a7.279,7.279,0,0,0,7.277-7.277v-19.4A7.279,7.279,0,0,0,70.342,36.208Zm-43.661,0H14.554v-9.7a9.711,9.711,0,0,1,9.7-9.7h1.213a3.63,3.63,0,0,0,3.638-3.638V5.888A3.63,3.63,0,0,0,25.469,2.25H24.256A24.249,24.249,0,0,0,0,26.506V62.89a7.279,7.279,0,0,0,7.277,7.277h19.4a7.279,7.279,0,0,0,7.277-7.277v-19.4A7.279,7.279,0,0,0,26.682,36.208Z" transform="translate(0 -2.25)" fill="#171717"/>
</svg>
